# xmcd
#
# Track frame offsets:
#	150
#	19837
#	38950
#
# Disc length: 780 seconds
#
# Revision: 0
# Processed by: cddbd v1.4PL0 Copyright (c) Steve Scherf et al.
# Submitted via: audiograbber 1.81.03
#
DISCID=1d030a03
DTITLE=BB Steal - Heartbreak Away
DYEAR=1900
DGENRE=
TTITLE0=Heartbreak Away
TTITLE1=I Believe
TTITLE2=Hold On
EXTD=
EXTT0=
EXTT1=
EXTT2=
PLAYORDER=
